<?xml version="1.0" encoding="utf-8"?>
<!-- Generator: Adobe Illustrator 21.1.0, SVG Export Plug-In . SVG Version: 6.00 Build 0)  -->
<svg version="1.1" id="圖層_1" xmlns="http://www.w3.org/2000/svg" xmlns:xlink="http://www.w3.org/1999/xlink" x="0px" y="0px"
	 viewBox="0 0 150 50" style="enable-background:new 0 0 150 50;" xml:space="preserve">
<style type="text/css">
	.st0{display:none;}
	.st1{font-family:'Bauhaus93';}
	.st2{font-size:34.3239px;}
	.st3{font-size:12.9204px;}
</style>
<g>
	<path d="M40.4,6.4v14.8c0,2.6-0.8,4.7-2.3,6.3s-3.6,2.3-6.2,2.3c-2.6,0-4.6-0.8-5.9-2.3c-1.4-1.5-2.1-3.7-2.1-6.6V6.4h6.8V21
		c0,1.4,0.5,2.1,1.5,2.1c1,0,1.4-0.7,1.4-2.1V6.4H40.4z"/>
	<path d="M52.6,29.3V14.4c0-2.6,0.8-4.7,2.3-6.3c1.6-1.6,3.6-2.3,6.2-2.3c2.6,0,4.6,0.8,5.9,2.3s2.1,3.7,2.1,6.6v14.6h-6.8V14.6
		c0-1.4-0.5-2.1-1.5-2.1c-1,0-1.4,0.7-1.4,2.1v14.6H52.6z"/>
	<path d="M88.7,12.9v16.3h-6.8V6.4h8.9c3.9,0,6.9,0.9,9.1,2.6c2.6,2.1,3.9,5,3.9,8.6c0,3.5-1.1,6.3-3.4,8.5
		c-2.2,2.2-5.1,3.3-8.6,3.3c-0.4,0-1.1,0-2-0.1v-6.7h1.1c4,0,6-1.7,6-5c0-3.1-2-4.7-5.8-4.7H88.7z"/>
	<path d="M127.8,15.3v5.1h-4.4c-0.6,0-1,0.1-1.3,0.3c-0.3,0.2-0.4,0.5-0.4,0.9c0,0.5,0.1,0.8,0.4,0.9s0.8,0.2,1.6,0.2h4.6v6.5h-5.3
		c-2.5,0-4.4-0.6-5.8-1.8c-1.3-1.2-2-2.9-2-5.2v-9c0-2.2,0.6-3.9,1.9-5.1c1.3-1.2,3-1.8,5.3-1.8h5.9v6.6h-4.3
		c-1.2,0-1.8,0.4-1.8,1.1c0,0.4,0.1,0.8,0.4,0.9s0.8,0.3,1.5,0.3H127.8z"/>
</g>
<text transform="matrix(1 0 0 1 22 29.2568)" class="st0 st1 st2">U N D E</text>
<g>
	<path d="M15.4,38.2v5.6c0,1-0.3,1.8-0.8,2.4C14,46.7,13.3,47,12.4,47c-0.9,0-1.6-0.3-2.1-0.9s-0.7-1.4-0.7-2.5v-5.5H12v5.5
		c0,0.5,0.2,0.8,0.5,0.8c0.3,0,0.5-0.3,0.5-0.8v-5.5H15.4z"/>
	<path d="M20.3,40.6v2.5c-0.3,0-0.5,0.1-0.6,0.2s-0.2,0.4-0.2,0.7c-0.1,1.2-0.5,2.1-1.3,2.6c-0.4,0.3-1,0.4-1.7,0.4h-0.3v-2.5h0.1
		c0.3,0,0.6-0.1,0.7-0.2c0.1-0.2,0.2-0.4,0.3-0.8c0-0.6,0.1-1.1,0.2-1.4c0.1-0.3,0.2-0.5,0.5-0.8c0.4-0.5,1-0.7,1.8-0.7H20.3z"/>
	<path d="M23.2,40.5v6.3H21v-6.3H23.2z M22.1,37.7c0.3,0,0.5,0.1,0.8,0.3s0.3,0.5,0.3,0.8c0,0.3-0.1,0.6-0.3,0.8
		c-0.2,0.2-0.5,0.3-0.8,0.3c-0.3,0-0.6-0.1-0.8-0.3c-0.2-0.2-0.3-0.5-0.3-0.8c0-0.3,0.1-0.6,0.3-0.8S21.8,37.7,22.1,37.7z"/>
	<path d="M29.6,46.8h-2.2v-3.6c0-0.4-0.1-0.5-0.4-0.5c-0.3,0-0.4,0.2-0.4,0.5v3.6h-2.2v-3.5c0-0.8,0.2-1.5,0.7-2.1
		c0.5-0.6,1.1-0.8,1.8-0.8c0.8,0,1.5,0.3,2,1c0.4,0.5,0.6,1.2,0.6,2.1V46.8z"/>
	<path d="M34,44.2v2.2c-0.3,0.1-0.6,0.2-0.9,0.2c-0.7,0-1.3-0.3-1.8-0.9c-0.5-0.6-0.7-1.3-0.7-2.1c0-0.9,0.3-1.7,0.9-2.3
		c0.6-0.6,1.3-0.9,2.2-0.9c0.5,0,0.9,0.1,1.3,0.3c0.4,0.2,0.7,0.5,1,0.8c0.4,0.6,0.6,1.4,0.6,2.4v2.1c0,1.1-0.3,2-0.9,2.7
		c-0.6,0.7-1.4,1.1-2.3,1.1c-0.3,0-0.6-0.1-1.1-0.2v-2.1c0.3,0.2,0.6,0.3,0.9,0.3c0.4,0,0.7-0.1,0.9-0.4c0.2-0.3,0.3-0.7,0.3-1.2
		v-2.4c0-0.7-0.2-1-0.7-1c-0.2,0-0.4,0.1-0.5,0.3s-0.2,0.4-0.2,0.6c0,0.2,0.1,0.4,0.2,0.6c0.1,0.2,0.3,0.2,0.6,0.2
		C33.7,44.3,33.8,44.3,34,44.2z"/>
	<path d="M40.7,46.8v-5.6c0-1,0.3-1.8,0.8-2.4c0.5-0.6,1.3-0.9,2.2-0.9c0.9,0,1.6,0.3,2.1,0.9c0.5,0.6,0.7,1.4,0.7,2.5v5.5h-2.4
		v-5.5c0-0.5-0.2-0.8-0.5-0.8c-0.3,0-0.5,0.3-0.5,0.8v5.5H40.7z"/>
	<path d="M50.9,44.4v2.4c-0.2,0-0.3,0.1-0.5,0.1c-0.9,0-1.6-0.3-2.2-0.9c-0.6-0.6-0.9-1.4-0.9-2.3c0-0.9,0.3-1.7,0.9-2.3
		c0.6-0.6,1.3-1,2.1-1c0.9,0,1.7,0.3,2.2,0.9c0.5,0.6,0.8,1.4,0.8,2.4v3.1h-2.2v-2.9c0-0.3-0.1-0.6-0.2-0.8
		c-0.1-0.2-0.3-0.3-0.6-0.3c-0.2,0-0.4,0.1-0.6,0.3c-0.2,0.2-0.3,0.4-0.3,0.6c0,0.3,0.1,0.5,0.2,0.6c0.2,0.2,0.3,0.3,0.6,0.3
		C50.6,44.6,50.8,44.5,50.9,44.4z"/>
	<path d="M56.6,38.2v2.4h1v2.5h-1c0,0.5,0.1,0.8,0.2,1c0.1,0.2,0.4,0.3,0.8,0.3v2.5c-0.1,0-0.2,0-0.2,0c-0.5,0-1-0.1-1.4-0.4
		c-0.4-0.2-0.8-0.6-1-1c-0.3-0.5-0.5-1.3-0.5-2.2v-5.2H56.6z"/>
	<path d="M58.7,40.6h2.2v3.6c0,0.4,0.1,0.5,0.4,0.5c0.3,0,0.4-0.2,0.4-0.5v-3.6h2.2v3.5c0,0.8-0.3,1.5-0.7,2.1S62,47,61.3,47
		c-0.8,0-1.5-0.3-2-1c-0.4-0.5-0.6-1.2-0.6-2.1V40.6z"/>
	<path d="M68.3,40.4v2.5c-0.2-0.1-0.3-0.1-0.4-0.1c-0.4,0-0.6,0.3-0.6,1v3h-2.2v-3.4c0-0.9,0.2-1.6,0.7-2.2c0.5-0.5,1.1-0.8,1.8-0.8
		C67.8,40.3,68,40.4,68.3,40.4z"/>
	<path d="M74.6,44h-3.3c-0.1-0.2-0.1-0.3-0.1-0.5c0-0.2,0-0.4,0.1-0.6h1.1c-0.1-0.5-0.3-0.7-0.7-0.7c-0.3,0-0.5,0.1-0.7,0.4
		c-0.2,0.3-0.3,0.6-0.3,1c0,0.4,0.1,0.7,0.2,1c0.2,0.3,0.4,0.4,0.6,0.4c0.2,0,0.4-0.1,0.6-0.4l1.2,1.6c-0.6,0.5-1.2,0.7-1.9,0.7
		c-0.9,0-1.6-0.3-2.2-0.9c-0.6-0.6-0.9-1.4-0.9-2.3c0-0.9,0.3-1.7,0.9-2.3c0.6-0.6,1.3-1,2.2-1c0.8,0,1.5,0.3,2.1,0.9
		s0.9,1.4,0.9,2.3C74.6,43.7,74.6,43.8,74.6,44z"/>
	<path d="M83.3,43.1h1.5c0,0.2,0,0.3,0,0.4c0,0.5-0.1,1-0.3,1.4l1.1,1.8h-2.1l-0.2-0.3c-0.5,0.3-0.9,0.5-1.4,0.5
		c-0.7,0-1.3-0.3-1.8-0.8c-0.5-0.5-0.8-1.2-0.8-1.9c0-0.9,0.3-1.6,1-2.2c-0.4-0.5-0.6-1-0.6-1.6c0-0.7,0.2-1.3,0.7-1.8
		c0.4-0.5,1-0.7,1.6-0.7c0.6,0,1.1,0.2,1.6,0.7c0.4,0.5,0.7,1,0.7,1.7c0,0.1,0,0.2,0,0.3h-1.8c0-0.4-0.2-0.6-0.4-0.6
		c-0.2,0-0.3,0.1-0.3,0.4c0,0.1,0,0.2,0.1,0.3L83.3,43.1z M81.4,43.7c-0.2,0.2-0.3,0.3-0.3,0.5c0,0.2,0.1,0.4,0.2,0.5
		s0.3,0.2,0.4,0.2c0.1,0,0.3-0.1,0.4-0.2L81.4,43.7z"/>
	<path d="M93.1,40.6v6.1h-2.4v-8.6h3.1c1.3,0,2.4,0.3,3.2,1c0.9,0.8,1.4,1.9,1.4,3.2c0,1.3-0.4,2.4-1.2,3.2c-0.8,0.8-1.8,1.2-3,1.2
		c-0.1,0-0.4,0-0.7,0v-2.5h0.4c1.4,0,2.1-0.6,2.1-1.9c0-1.2-0.7-1.8-2-1.8H93.1z"/>
	<path d="M102,40.3c0.8,0,1.5,0.3,2.1,1s0.9,1.4,0.9,2.3c0,0.9-0.3,1.7-0.9,2.3c-0.6,0.6-1.3,1-2.2,1c-0.8,0-1.6-0.3-2.2-1
		c-0.6-0.6-0.9-1.4-0.9-2.3c0-0.9,0.3-1.7,0.9-2.3C100.4,40.7,101.1,40.3,102,40.3z M101.9,42.7c-0.2,0-0.4,0.1-0.6,0.3
		c-0.2,0.2-0.2,0.4-0.2,0.7c0,0.3,0.1,0.5,0.2,0.7c0.2,0.2,0.4,0.3,0.6,0.3c0.2,0,0.4-0.1,0.6-0.3c0.2-0.2,0.2-0.4,0.2-0.7
		c0-0.3-0.1-0.5-0.2-0.7C102.4,42.8,102.2,42.7,101.9,42.7z"/>
	<path d="M108.1,40.5v6.3h-2.2v-6.3H108.1z M107,37.7c0.3,0,0.5,0.1,0.8,0.3s0.3,0.5,0.3,0.8c0,0.3-0.1,0.6-0.3,0.8
		c-0.2,0.2-0.5,0.3-0.8,0.3c-0.3,0-0.6-0.1-0.8-0.3c-0.2-0.2-0.3-0.5-0.3-0.8c0-0.3,0.1-0.6,0.3-0.8C106.4,37.8,106.7,37.7,107,37.7
		z"/>
	<path d="M114.5,46.8h-2.2v-3.6c0-0.4-0.1-0.5-0.4-0.5c-0.3,0-0.4,0.2-0.4,0.5v3.6h-2.2v-3.5c0-0.8,0.3-1.5,0.8-2.1
		c0.5-0.6,1.1-0.8,1.8-0.8c0.8,0,1.5,0.3,2,1c0.4,0.5,0.6,1.2,0.6,2.1V46.8z"/>
	<path d="M118.9,44.2v2.2c-0.3,0.1-0.6,0.2-0.9,0.2c-0.7,0-1.3-0.3-1.8-0.9c-0.5-0.6-0.7-1.3-0.7-2.1c0-0.9,0.3-1.7,0.9-2.3
		c0.6-0.6,1.3-0.9,2.2-0.9c0.5,0,0.9,0.1,1.3,0.3c0.4,0.2,0.7,0.5,1,0.8c0.4,0.6,0.6,1.4,0.6,2.4v2.1c0,1.1-0.3,2-0.9,2.7
		c-0.6,0.7-1.4,1.1-2.3,1.1c-0.3,0-0.6-0.1-1.1-0.2v-2.1c0.3,0.2,0.6,0.3,0.9,0.3c0.4,0,0.7-0.1,0.9-0.4c0.2-0.3,0.3-0.7,0.3-1.2
		v-2.4c0-0.7-0.2-1-0.7-1c-0.2,0-0.4,0.1-0.5,0.3c-0.2,0.2-0.2,0.4-0.2,0.6c0,0.2,0.1,0.4,0.2,0.6c0.1,0.2,0.3,0.2,0.6,0.2
		C118.6,44.3,118.7,44.3,118.9,44.2z"/>
	<path d="M130,41.5v1.9h-1.5c-0.2,0-0.4,0-0.4,0.1c-0.1,0.1-0.1,0.2-0.1,0.3c0,0.2,0,0.3,0.1,0.4s0.3,0.1,0.5,0.1h1.6v2.5h-1.9
		c-0.9,0-1.5-0.2-2-0.7s-0.7-1.1-0.7-2v-3.4c0-0.8,0.2-1.5,0.7-1.9c0.4-0.5,1-0.7,1.8-0.7h2.1v2.5h-1.5c-0.4,0-0.6,0.1-0.6,0.4
		c0,0.2,0,0.3,0.1,0.3c0.1,0.1,0.3,0.1,0.5,0.1H130z"/>
	<path d="M134.9,43.9l2.2-0.1c-0.1,0.9-0.4,1.7-0.9,2.2c-0.6,0.6-1.2,0.9-2.1,0.9c-0.9,0-1.6-0.3-2.2-1c-0.6-0.6-0.9-1.4-0.9-2.4
		c0-0.9,0.3-1.6,0.9-2.3c0.6-0.6,1.3-0.9,2.1-0.9c0.7,0,1.4,0.2,1.9,0.7s0.9,1.1,1,1.9l-2.2,0.1c-0.2-0.3-0.4-0.4-0.7-0.4
		c-0.2,0-0.5,0.1-0.6,0.3c-0.2,0.2-0.2,0.4-0.2,0.7c0,0.3,0.1,0.5,0.3,0.7c0.2,0.2,0.4,0.3,0.6,0.3
		C134.5,44.6,134.7,44.3,134.9,43.9z"/>
	<path d="M140.7,40.3c0.8,0,1.5,0.3,2.1,1s0.9,1.4,0.9,2.3c0,0.9-0.3,1.7-0.9,2.3c-0.6,0.6-1.3,1-2.2,1c-0.8,0-1.6-0.3-2.2-1
		c-0.6-0.6-0.9-1.4-0.9-2.3c0-0.9,0.3-1.7,0.9-2.3C139.1,40.7,139.9,40.3,140.7,40.3z M140.7,42.7c-0.2,0-0.4,0.1-0.6,0.3
		c-0.2,0.2-0.2,0.4-0.2,0.7c0,0.3,0.1,0.5,0.2,0.7c0.2,0.2,0.4,0.3,0.6,0.3c0.2,0,0.4-0.1,0.6-0.3c0.2-0.2,0.2-0.4,0.2-0.7
		c0-0.3-0.1-0.5-0.2-0.7C141.1,42.8,140.9,42.7,140.7,42.7z"/>
</g>
<text transform="matrix(0.9208 0 0 1 9 46.7686)" class="st0 st1 st3">Using Nature &amp; Doing Eco</text>
</svg>
